<mxfile host="app.diagrams.net" agent="Mozilla/5.0 (Macintosh; Intel Mac OS X 10_15_7) AppleWebKit/537.36 (KHTML, like Gecko) Chrome/139.0.0.0 Safari/537.36" version="28.2.4">
  <diagram name="Page-1" id="deNBrJI97-aaW1KRHcJk">
    <mxGraphModel dx="1018" dy="569" grid="1" gridSize="10" guides="1" tooltips="1" connect="1" arrows="1" fold="1" page="1" pageScale="1" pageWidth="850" pageHeight="1100" math="0" shadow="0">
      <root>
        <mxCell id="0" />
        <mxCell id="1" parent="0" />
        <mxCell id="TKcdvpv9XamH0jbEUl0M-7" value="" style="edgeStyle=orthogonalEdgeStyle;rounded=0;orthogonalLoop=1;jettySize=auto;html=1;curved=1;" parent="1" source="TKcdvpv9XamH0jbEUl0M-2" target="TKcdvpv9XamH0jbEUl0M-6" edge="1">
          <mxGeometry relative="1" as="geometry" />
        </mxCell>
        <mxCell id="TKcdvpv9XamH0jbEUl0M-8" value="Flush" style="edgeLabel;html=1;align=center;verticalAlign=middle;resizable=0;points=[];" parent="TKcdvpv9XamH0jbEUl0M-7" vertex="1" connectable="0">
          <mxGeometry x="-0.22" relative="1" as="geometry">
            <mxPoint as="offset" />
          </mxGeometry>
        </mxCell>
        <mxCell id="TKcdvpv9XamH0jbEUl0M-25" style="edgeStyle=orthogonalEdgeStyle;rounded=0;orthogonalLoop=1;jettySize=auto;html=1;curved=1;" parent="1" source="TKcdvpv9XamH0jbEUl0M-2" target="TKcdvpv9XamH0jbEUl0M-4" edge="1">
          <mxGeometry relative="1" as="geometry" />
        </mxCell>
        <mxCell id="TKcdvpv9XamH0jbEUl0M-26" value="Listen" style="edgeLabel;html=1;align=center;verticalAlign=middle;resizable=0;points=[];" parent="TKcdvpv9XamH0jbEUl0M-25" vertex="1" connectable="0">
          <mxGeometry x="0.2286" relative="1" as="geometry">
            <mxPoint as="offset" />
          </mxGeometry>
        </mxCell>
        <mxCell id="TKcdvpv9XamH0jbEUl0M-2" value="Indicator Pool" style="shape=cylinder3;whiteSpace=wrap;html=1;boundedLbl=1;backgroundOutline=1;size=15;" parent="1" vertex="1">
          <mxGeometry x="290" y="270" width="60" height="80" as="geometry" />
        </mxCell>
        <mxCell id="TKcdvpv9XamH0jbEUl0M-13" style="edgeStyle=orthogonalEdgeStyle;rounded=0;orthogonalLoop=1;jettySize=auto;html=1;exitX=0.5;exitY=0;exitDx=0;exitDy=0;entryX=0.5;entryY=0;entryDx=0;entryDy=0;elbow=vertical;curved=1;" parent="1" source="TKcdvpv9XamH0jbEUl0M-4" target="TKcdvpv9XamH0jbEUl0M-10" edge="1">
          <mxGeometry relative="1" as="geometry" />
        </mxCell>
        <mxCell id="TKcdvpv9XamH0jbEUl0M-14" value="Trigger" style="edgeLabel;html=1;align=center;verticalAlign=middle;resizable=0;points=[];" parent="TKcdvpv9XamH0jbEUl0M-13" vertex="1" connectable="0">
          <mxGeometry x="-0.0091" y="1" relative="1" as="geometry">
            <mxPoint as="offset" />
          </mxGeometry>
        </mxCell>
        <mxCell id="TKcdvpv9XamH0jbEUl0M-23" value="" style="edgeStyle=orthogonalEdgeStyle;rounded=0;orthogonalLoop=1;jettySize=auto;html=1;entryX=0;entryY=0;entryDx=0;entryDy=52.5;entryPerimeter=0;curved=1;" parent="1" source="TKcdvpv9XamH0jbEUl0M-4" target="TKcdvpv9XamH0jbEUl0M-6" edge="1">
          <mxGeometry relative="1" as="geometry">
            <mxPoint x="165" y="430" as="targetPoint" />
          </mxGeometry>
        </mxCell>
        <mxCell id="TKcdvpv9XamH0jbEUl0M-24" value="Save" style="edgeLabel;html=1;align=center;verticalAlign=middle;resizable=0;points=[];" parent="TKcdvpv9XamH0jbEUl0M-23" vertex="1" connectable="0">
          <mxGeometry x="-0.2778" relative="1" as="geometry">
            <mxPoint as="offset" />
          </mxGeometry>
        </mxCell>
        <mxCell id="TKcdvpv9XamH0jbEUl0M-4" value="Candle/Tick/Order Book" style="ellipse;whiteSpace=wrap;html=1;" parent="1" vertex="1">
          <mxGeometry x="30" y="250" width="120" height="80" as="geometry" />
        </mxCell>
        <mxCell id="TKcdvpv9XamH0jbEUl0M-6" value="Database" style="shape=cylinder3;whiteSpace=wrap;html=1;boundedLbl=1;backgroundOutline=1;size=15;" parent="1" vertex="1">
          <mxGeometry x="250" y="410" width="60" height="80" as="geometry" />
        </mxCell>
        <mxCell id="TKcdvpv9XamH0jbEUl0M-16" value="" style="edgeStyle=orthogonalEdgeStyle;rounded=0;orthogonalLoop=1;jettySize=auto;html=1;curved=1;" parent="1" source="TKcdvpv9XamH0jbEUl0M-10" target="TKcdvpv9XamH0jbEUl0M-15" edge="1">
          <mxGeometry relative="1" as="geometry" />
        </mxCell>
        <mxCell id="TKcdvpv9XamH0jbEUl0M-17" value="Notify" style="edgeLabel;html=1;align=center;verticalAlign=middle;resizable=0;points=[];" parent="TKcdvpv9XamH0jbEUl0M-16" vertex="1" connectable="0">
          <mxGeometry x="-0.1755" relative="1" as="geometry">
            <mxPoint as="offset" />
          </mxGeometry>
        </mxCell>
        <mxCell id="TKcdvpv9XamH0jbEUl0M-20" value="" style="edgeStyle=orthogonalEdgeStyle;rounded=0;orthogonalLoop=1;jettySize=auto;html=1;curved=1;" parent="1" source="TKcdvpv9XamH0jbEUl0M-10" target="TKcdvpv9XamH0jbEUl0M-19" edge="1">
          <mxGeometry relative="1" as="geometry" />
        </mxCell>
        <mxCell id="TKcdvpv9XamH0jbEUl0M-21" value="Notify" style="edgeLabel;html=1;align=center;verticalAlign=middle;resizable=0;points=[];" parent="TKcdvpv9XamH0jbEUl0M-20" vertex="1" connectable="0">
          <mxGeometry x="-0.3107" y="-1" relative="1" as="geometry">
            <mxPoint x="13" y="-1" as="offset" />
          </mxGeometry>
        </mxCell>
        <mxCell id="TKcdvpv9XamH0jbEUl0M-10" value="Strategy" style="ellipse;whiteSpace=wrap;html=1;" parent="1" vertex="1">
          <mxGeometry x="445" y="230" width="140" height="80" as="geometry" />
        </mxCell>
        <mxCell id="TKcdvpv9XamH0jbEUl0M-11" style="edgeStyle=orthogonalEdgeStyle;rounded=0;orthogonalLoop=1;jettySize=auto;html=1;exitX=0;exitY=0.5;exitDx=0;exitDy=0;entryX=1;entryY=0.5;entryDx=0;entryDy=0;entryPerimeter=0;curved=1;" parent="1" source="TKcdvpv9XamH0jbEUl0M-10" target="TKcdvpv9XamH0jbEUl0M-2" edge="1">
          <mxGeometry relative="1" as="geometry" />
        </mxCell>
        <mxCell id="TKcdvpv9XamH0jbEUl0M-12" value="Take" style="edgeLabel;html=1;align=center;verticalAlign=middle;resizable=0;points=[];" parent="TKcdvpv9XamH0jbEUl0M-11" vertex="1" connectable="0">
          <mxGeometry x="-0.0588" relative="1" as="geometry">
            <mxPoint as="offset" />
          </mxGeometry>
        </mxCell>
        <mxCell id="TKcdvpv9XamH0jbEUl0M-15" value="Order" style="ellipse;whiteSpace=wrap;html=1;" parent="1" vertex="1">
          <mxGeometry x="420" y="390" width="120" height="80" as="geometry" />
        </mxCell>
        <mxCell id="TKcdvpv9XamH0jbEUl0M-19" value="Monitor" style="ellipse;whiteSpace=wrap;html=1;" parent="1" vertex="1">
          <mxGeometry x="670" y="260" width="140" height="80" as="geometry" />
        </mxCell>
        <mxCell id="TKcdvpv9XamH0jbEUl0M-28" value="" style="edgeStyle=orthogonalEdgeStyle;rounded=0;orthogonalLoop=1;jettySize=auto;html=1;curved=1;" parent="1" source="TKcdvpv9XamH0jbEUl0M-27" target="TKcdvpv9XamH0jbEUl0M-10" edge="1">
          <mxGeometry relative="1" as="geometry" />
        </mxCell>
        <mxCell id="TKcdvpv9XamH0jbEUl0M-29" value="Trigger" style="edgeLabel;html=1;align=center;verticalAlign=middle;resizable=0;points=[];" parent="TKcdvpv9XamH0jbEUl0M-28" vertex="1" connectable="0">
          <mxGeometry x="-0.4" y="1" relative="1" as="geometry">
            <mxPoint as="offset" />
          </mxGeometry>
        </mxCell>
        <mxCell id="TKcdvpv9XamH0jbEUl0M-27" value="Job" style="ellipse;whiteSpace=wrap;html=1;" parent="1" vertex="1">
          <mxGeometry x="500" y="70" width="140" height="80" as="geometry" />
        </mxCell>
        <mxCell id="TKcdvpv9XamH0jbEUl0M-31" value="" style="edgeStyle=orthogonalEdgeStyle;rounded=0;orthogonalLoop=1;jettySize=auto;html=1;curved=1;" parent="1" source="TKcdvpv9XamH0jbEUl0M-30" target="TKcdvpv9XamH0jbEUl0M-4" edge="1">
          <mxGeometry relative="1" as="geometry" />
        </mxCell>
        <mxCell id="TKcdvpv9XamH0jbEUl0M-32" value="Publish" style="edgeLabel;html=1;align=center;verticalAlign=middle;resizable=0;points=[];" parent="TKcdvpv9XamH0jbEUl0M-31" vertex="1" connectable="0">
          <mxGeometry x="-0.2429" relative="1" as="geometry">
            <mxPoint as="offset" />
          </mxGeometry>
        </mxCell>
        <mxCell id="TKcdvpv9XamH0jbEUl0M-30" value="Event Bus" style="ellipse;whiteSpace=wrap;html=1;" parent="1" vertex="1">
          <mxGeometry x="30" y="70" width="140" height="80" as="geometry" />
        </mxCell>
      </root>
    </mxGraphModel>
  </diagram>
</mxfile>
